# xmcd
#
# Track frame offsets:
#	150
#	13333
#	27610
#	41011
#	52064
#	69845
#	83435
#	95985
#	109034
#	124523
#	138288
#	151931
#	166989
#	177773
#	190293
#	203793
#	217470
#	232139
#	244032
#	256114
#
# Disc length: 3582 seconds
# Revision: 0
# Processed by: cddbd v1.5.2PL0 Copyright (c) Steve Scherf et al.
# Submitted via: dBpowerAMP V12.0
#
DISCID=1d0dfc14
DTITLE=Ronnie Milsap - Four Albums On Two Discs CD2: A Legend In My Time and Night Things
DYEAR=2019
DGENRE=Country
TTITLE0=The Busiest Memory In Town
TTITLE1=Too Late To Worry, Too Blue To Cry
TTITLE2=(I'd Be) A Legend In My Time
TTITLE3=The Biggest Lie
TTITLE4=Country Cookin'
TTITLE5=She Came Here For The Change
TTITLE6=I'll Leave This World Loving You
TTITLE7=I'm Still Not Over You
TTITLE8=I Honestly Love You
TTITLE9=Clap Your Hands
TTITLE10=(After Sweet Memories) Play Born To Lose Again
TTITLE11=Who'll Turn Out The Lights (In Your World Tonight)
TTITLE12=Daydreams About Night Things
TTITLE13=I'm No Good At Goodbyes
TTITLE14=Just In Case
TTITLE15=Remember To Remind Me (I'm Leaving)
TTITLE16=Borrowed Angel
TTITLE17=Love Takes A Long Time Time To Die
TTITLE18=(Lying Here With) Linda On My Mind
TTITLE19=I'll Be There (If You Ever Want Me)
EXTD=
EXTT0=
EXTT1=
EXTT2=
EXTT3=
EXTT4=
EXTT5=
EXTT6=
EXTT7=
EXTT8=
EXTT9=
EXTT10=
EXTT11=
EXTT12=
EXTT13=
EXTT14=
EXTT15=
EXTT16=
EXTT17=
EXTT18=
EXTT19=
PLAYORDER=
